<svg id="f2166fc5-6ec0-4b10-b15e-226b27b8f307" data-name="Livello 1" xmlns="http://www.w3.org/2000/svg" viewBox="0 0 269.86 66.12">
  <defs>
    <style>
      .e12f8990-5ad5-4154-8111-7bb7840f983b {
        isolation: isolate;
      }

      .bb9969d4-dd69-4256-9857-37027f332ab7 {
        fill: #010101;
      }

      .a80ccd9d-3b50-4dbb-bfaa-4d8a6f020263 {
        fill: #ee7322;
      }

      .a3d3d64c-3a08-4756-b6b9-23561e4b7794 {
        fill: none;
        stroke: #ee7322;
        stroke-width: 2px;
      }

      .a889f185-f780-4de1-9459-7b637a841f89 {
        fill: #f39042;
      }
    </style>
  </defs>
  <title>logo_zappavigna</title>
  <g id="a63d64c2-23c9-49ff-9766-99850915ac92" data-name="icon">
    <g class="e12f8990-5ad5-4154-8111-7bb7840f983b">
      <path class="bb9969d4-dd69-4256-9857-37027f332ab7" d="M13.37,57.5V24a12.63,12.63,0,0,1,1-5.4A9,9,0,0,1,17,15.17a10,10,0,0,1,3.6-1.74,15.37,15.37,0,0,1,3.84-.51l5.16,0q3.3,0,7.17.24t7.35.69v9.78H27.83a2.63,2.63,0,0,0-2.16.81A2.67,2.67,0,0,0,25,26.18v5l16.14.6v9.24L25,41.66V57.5Z" transform="translate(-13.37 -6.5)"/>
    </g>
    <g class="e12f8990-5ad5-4154-8111-7bb7840f983b">
      <path class="a80ccd9d-3b50-4dbb-bfaa-4d8a6f020263" d="M37.17,62.5V53.26l16.62-24.9H37.17V17.92H68v9.24L51.33,52.06H68V62.5Z" transform="translate(-13.37 -6.5)"/>
    </g>
  </g>
  <line class="a3d3d64c-3a08-4756-b6b9-23561e4b7794" x1="75.7" y1="1" x2="75.7" y2="61"/>
  <g id="fffd8eaf-3016-45de-af30-072722112f08" data-name="text-group">
    <g class="e12f8990-5ad5-4154-8111-7bb7840f983b">
      <g class="e12f8990-5ad5-4154-8111-7bb7840f983b">
        <path class="bb9969d4-dd69-4256-9857-37027f332ab7" d="M110.61,27.5V11.85a5.84,5.84,0,0,1,.48-2.52,4.23,4.23,0,0,1,1.23-1.58A4.7,4.7,0,0,1,114,6.93a7.64,7.64,0,0,1,1.79-.23h2.41c1,0,2.14,0,3.35.11s2.35.18,3.43.32v4.57h-7.62a1.22,1.22,0,0,0-1,.38,1.24,1.24,0,0,0-.3.79v2.36l7.53.28v4.31l-7.53.28V27.5Z" transform="translate(-13.37 -6.5)"/>
        <path class="bb9969d4-dd69-4256-9857-37027f332ab7" d="M127.22,27.5V6.7h8.87a9,9,0,0,1,2.52.33,4.77,4.77,0,0,1,2,1.14,5.11,5.11,0,0,1,1.3,2.14,10.44,10.44,0,0,1,.47,3.39,9.89,9.89,0,0,1-.23,2.24,6.15,6.15,0,0,1-.6,1.61,4.24,4.24,0,0,1-.9,1.1,7.12,7.12,0,0,1-1.1.79l3.61,8.06h-5.52l-2.91-7.17h-2.07V27.5ZM132.65,16h2.46a2.15,2.15,0,0,0,.79-.13,1.41,1.41,0,0,0,.57-.4,1.73,1.73,0,0,0,.35-.72,4,4,0,0,0,.11-1,3.82,3.82,0,0,0-.11-1,1.35,1.35,0,0,0-.92-1,2.69,2.69,0,0,0-.79-.11h-2.46Z" transform="translate(-13.37 -6.5)"/>
        <path class="bb9969d4-dd69-4256-9857-37027f332ab7" d="M143.74,27.5,149.9,6.7h6.77l6.16,20.8h-5.62l-.84-3.3h-6.25l-.81,3.3Zm7.64-8.18h3.73l-1.88-8Z" transform="translate(-13.37 -6.5)"/>
        <path class="bb9969d4-dd69-4256-9857-37027f332ab7" d="M164.51,27.5V6.7h4.32l7.3,11.59V6.7h5.44V27.5h-4.32L170,15.91V27.5Z" transform="translate(-13.37 -6.5)"/>
        <path class="bb9969d4-dd69-4256-9857-37027f332ab7" d="M191.76,27.67a11.06,11.06,0,0,1-3.17-.42,5.16,5.16,0,0,1-2.4-1.54,7.39,7.39,0,0,1-1.54-3.22,22.57,22.57,0,0,1-.54-5.46,21,21,0,0,1,.56-5.32,7.78,7.78,0,0,1,1.59-3.21,5.36,5.36,0,0,1,2.42-1.57,10.33,10.33,0,0,1,3.08-.43,22.91,22.91,0,0,1,3.06.18,17.64,17.64,0,0,1,2.27.44,9,9,0,0,1,1.5.5v4.23c-.36-.08-.81-.15-1.37-.23s-1.2-.13-1.92-.18-1.5-.07-2.34-.07a5.75,5.75,0,0,0-1.61.2,1.86,1.86,0,0,0-1,.78,4.43,4.43,0,0,0-.57,1.72,20.07,20.07,0,0,0-.18,3,21.84,21.84,0,0,0,.14,2.8,4.69,4.69,0,0,0,.5,1.75,2,2,0,0,0,1.05.9,4.94,4.94,0,0,0,1.78.27c1.42,0,2.57,0,3.46-.07s1.59-.11,2.11-.19v4.23a9.48,9.48,0,0,1-1.64.48,20.43,20.43,0,0,1-2.2.31C193.91,27.63,192.92,27.67,191.76,27.67Z" transform="translate(-13.37 -6.5)"/>
        <path class="bb9969d4-dd69-4256-9857-37027f332ab7" d="M206.35,27.67a11.55,11.55,0,0,1-1.61-.14,5.53,5.53,0,0,1-1.82-.62,3.84,3.84,0,0,1-1.47-1.47,5.27,5.27,0,0,1-.59-2.73V11.85a6,6,0,0,1,.47-2.52,4.15,4.15,0,0,1,1.24-1.58,4.54,4.54,0,0,1,1.68-.82A7.51,7.51,0,0,1,206,6.7c1.57,0,2.91,0,4,.07s2.11.09,2.94.15,1.57.12,2.2.2v4.59h-7.5a1.61,1.61,0,0,0-1.07.31,1.13,1.13,0,0,0-.36.92v1.74l7.53.28v4.31l-7.53.28v1.57a1.94,1.94,0,0,0,.15.82,1,1,0,0,0,.44.48,1.25,1.25,0,0,0,.61.15h7.73v4.59c-.8.12-1.72.21-2.74.28s-2.07.13-3.14.17S207.28,27.67,206.35,27.67Z" transform="translate(-13.37 -6.5)"/>
        <path class="bb9969d4-dd69-4256-9857-37027f332ab7" d="M224.29,27.67c-.61,0-1.22,0-1.8-.06s-1.17-.09-1.74-.17-1.12-.15-1.64-.25-1-.2-1.51-.33V22.54c.64.06,1.32.11,2.06.14s1.48.07,2.24.09l2.11,0a7.29,7.29,0,0,0,1.54-.14,2,2,0,0,0,.93-.45,1.17,1.17,0,0,0,.3-.84V21a1,1,0,0,0-.43-.92,1.69,1.69,0,0,0-1-.31h-1.49a7.42,7.42,0,0,1-4.92-1.43q-1.68-1.43-1.68-4.79v-.92a5.65,5.65,0,0,1,1.84-4.61,8.22,8.22,0,0,1,5.32-1.52,24.1,24.1,0,0,1,2.48.12c.78.09,1.5.19,2.19.31s1.29.25,1.83.38v4.31c-.86-.07-1.82-.13-2.9-.18s-2.05-.07-2.92-.07a8.29,8.29,0,0,0-1.4.11,1.87,1.87,0,0,0-1,.45,1.33,1.33,0,0,0-.33,1v.28a1.27,1.27,0,0,0,.45,1.06,2.08,2.08,0,0,0,1.37.37h1.85a6.58,6.58,0,0,1,3.26.74,4.83,4.83,0,0,1,2,2,6.18,6.18,0,0,1,.66,2.89v.93a7.37,7.37,0,0,1-.93,4.06,4.54,4.54,0,0,1-2.63,1.89A15.22,15.22,0,0,1,224.29,27.67Z" transform="translate(-13.37 -6.5)"/>
        <path class="bb9969d4-dd69-4256-9857-37027f332ab7" d="M241.6,27.67a11.06,11.06,0,0,1-3.17-.42A5.24,5.24,0,0,1,236,25.71a7.62,7.62,0,0,1-1.54-3.22A23.16,23.16,0,0,1,234,17a21,21,0,0,1,.56-5.32,7.9,7.9,0,0,1,1.58-3.21,5.44,5.44,0,0,1,2.43-1.57,10.33,10.33,0,0,1,3.08-.43,23,23,0,0,1,3.06.18,18,18,0,0,1,2.27.44,9.31,9.31,0,0,1,1.5.5v4.23c-.36-.08-.81-.15-1.37-.23s-1.2-.13-1.92-.18-1.5-.07-2.34-.07a5.75,5.75,0,0,0-1.61.2,1.86,1.86,0,0,0-1.05.78,4.43,4.43,0,0,0-.57,1.72,18.64,18.64,0,0,0-.19,3,23.84,23.84,0,0,0,.14,2.8,4.86,4.86,0,0,0,.51,1.75,2,2,0,0,0,1.05.9,4.94,4.94,0,0,0,1.78.27c1.41,0,2.57,0,3.45-.07s1.6-.11,2.12-.19v4.23a9.48,9.48,0,0,1-1.64.48,20.43,20.43,0,0,1-2.2.31C243.75,27.63,242.75,27.67,241.6,27.67Z" transform="translate(-13.37 -6.5)"/>
        <path class="bb9969d4-dd69-4256-9857-37027f332ab7" d="M259.07,27.67a15.41,15.41,0,0,1-3.88-.44,6,6,0,0,1-2.79-1.55,7.12,7.12,0,0,1-1.68-3.21,21.46,21.46,0,0,1-.56-5.39,21.51,21.51,0,0,1,.56-5.39,7.08,7.08,0,0,1,1.68-3.2,6,6,0,0,1,2.79-1.56,17.72,17.72,0,0,1,7.76,0,5.92,5.92,0,0,1,2.78,1.56,6.89,6.89,0,0,1,1.68,3.2,21.05,21.05,0,0,1,.56,5.39,21,21,0,0,1-.56,5.39,6.93,6.93,0,0,1-1.68,3.21A5.91,5.91,0,0,1,263,27.23,15.52,15.52,0,0,1,259.07,27.67Zm0-4.87a4.89,4.89,0,0,0,1.73-.26,2,2,0,0,0,1.05-.86,4.52,4.52,0,0,0,.54-1.74,22.3,22.3,0,0,0,.15-2.86,23.14,23.14,0,0,0-.15-2.94,4.41,4.41,0,0,0-.54-1.72,1.91,1.91,0,0,0-1.05-.82,5.48,5.48,0,0,0-1.73-.23,5.55,5.55,0,0,0-1.72.23,1.92,1.92,0,0,0-1.07.82,4.42,4.42,0,0,0-.53,1.72,23.14,23.14,0,0,0-.15,2.94,22.3,22.3,0,0,0,.15,2.86,4.53,4.53,0,0,0,.53,1.74,2,2,0,0,0,1.07.86A4.94,4.94,0,0,0,259.07,22.8Z" transform="translate(-13.37 -6.5)"/>
      </g>
      <g class="e12f8990-5ad5-4154-8111-7bb7840f983b">
        <path class="bb9969d4-dd69-4256-9857-37027f332ab7" d="M110.05,58.3V54l7.76-11.62h-7.76V37.5h14.37v4.31l-7.76,11.62h7.76V58.3Z" transform="translate(-13.37 -6.5)"/>
        <path class="bb9969d4-dd69-4256-9857-37027f332ab7" d="M125.54,58.3l6.16-20.8h6.77l6.16,20.8H139l-.84-3.3h-6.25l-.81,3.3Zm7.64-8.18h3.73l-1.88-8Z" transform="translate(-13.37 -6.5)"/>
        <path class="bb9969d4-dd69-4256-9857-37027f332ab7" d="M146.31,58.3V37.5h9.13a11.17,11.17,0,0,1,2.19.23,5,5,0,0,1,2.05,1A5.22,5.22,0,0,1,161.2,41a11.48,11.48,0,0,1,.57,4,12.13,12.13,0,0,1-.56,4.05,5.4,5.4,0,0,1-1.46,2.3,4.75,4.75,0,0,1-1.94,1,8.27,8.27,0,0,1-2.06.27,10.75,10.75,0,0,1-1.11-.06c-.38,0-.75-.09-1.12-.15s-.7-.13-1-.2l-.77-.15V58.3Zm5.44-10.58h3.13a1.24,1.24,0,0,0,.88-.31,1.67,1.67,0,0,0,.45-.91,7,7,0,0,0,.13-1.5,5.56,5.56,0,0,0-.16-1.46,1.79,1.79,0,0,0-.46-.88,1.17,1.17,0,0,0-.84-.29h-3.13Z" transform="translate(-13.37 -6.5)"/>
        <path class="bb9969d4-dd69-4256-9857-37027f332ab7" d="M164,58.3V37.5h9.13a11.15,11.15,0,0,1,2.18.23,5,5,0,0,1,2.06,1A5.2,5.2,0,0,1,178.92,41a11.48,11.48,0,0,1,.57,4,11.88,11.88,0,0,1-.56,4.05,5.49,5.49,0,0,1-1.45,2.3,4.85,4.85,0,0,1-1.95,1,8.21,8.21,0,0,1-2.06.27,10.56,10.56,0,0,1-1.1-.06c-.39,0-.76-.09-1.12-.15l-1-.2-.77-.15V58.3Zm5.43-10.58h3.14a1.26,1.26,0,0,0,.88-.31,1.81,1.81,0,0,0,.45-.91,7.83,7.83,0,0,0,.12-1.5,6.07,6.07,0,0,0-.15-1.46,2,2,0,0,0-.46-.88,1.21,1.21,0,0,0-.84-.29h-3.14Z" transform="translate(-13.37 -6.5)"/>
        <path class="bb9969d4-dd69-4256-9857-37027f332ab7" d="M178.82,58.3,185,37.5h6.78l6.16,20.8h-5.63l-.84-3.3h-6.24l-.82,3.3Zm7.65-8.18h3.72l-1.88-8Z" transform="translate(-13.37 -6.5)"/>
        <path class="bb9969d4-dd69-4256-9857-37027f332ab7" d="M203.38,58.3l-6.16-20.8h5.62l3.95,14.89,4-14.89h5.57l-6.16,20.8Z" transform="translate(-13.37 -6.5)"/>
        <path class="bb9969d4-dd69-4256-9857-37027f332ab7" d="M218,58.3V37.5h5.43V58.3Z" transform="translate(-13.37 -6.5)"/>
        <path class="bb9969d4-dd69-4256-9857-37027f332ab7" d="M232.22,58.44a5.11,5.11,0,0,1-5-3.09,11.87,11.87,0,0,1-.94-3.35,28.92,28.92,0,0,1-.27-4.06,27.64,27.64,0,0,1,.32-4.37,9.47,9.47,0,0,1,1.18-3.36,5.6,5.6,0,0,1,2.45-2.15,9.63,9.63,0,0,1,4.14-.76,25.93,25.93,0,0,1,2.85.13,17.76,17.76,0,0,1,2.22.36c.69.16,1.41.34,2.16.55v4.22c-.41-.07-.93-.14-1.57-.19s-1.34-.1-2.13-.14-1.61-.06-2.49-.06a4.62,4.62,0,0,0-2.41.49,2.54,2.54,0,0,0-1,1.75,18.92,18.92,0,0,0-.25,3.53,23.51,23.51,0,0,0,.13,2.81,4.86,4.86,0,0,0,.47,1.67,1.78,1.78,0,0,0,.82.81,3,3,0,0,0,1.21.23,16.59,16.59,0,0,0,1.84-.1l1.24-.18V50.49h-2.89V46.18c.41-.06.9-.11,1.47-.14l1.77-.1c.6,0,1.16,0,1.66,0h1.78l1.42,0V58.3h-4.09l-.73-1.37a11.15,11.15,0,0,1-2.1,1A9.2,9.2,0,0,1,232.22,58.44Z" transform="translate(-13.37 -6.5)"/>
        <path class="bb9969d4-dd69-4256-9857-37027f332ab7" d="M245.4,58.3V37.5h4.32L257,49.09V37.5h5.44V58.3h-4.32l-7.3-11.59V58.3Z" transform="translate(-13.37 -6.5)"/>
        <path class="bb9969d4-dd69-4256-9857-37027f332ab7" d="M264.14,58.3l6.16-20.8h6.77l6.16,20.8H277.6l-.84-3.3h-6.24l-.81,3.3Zm7.64-8.18h3.72l-1.87-8Z" transform="translate(-13.37 -6.5)"/>
      </g>
    </g>
    <g class="e12f8990-5ad5-4154-8111-7bb7840f983b">
      <path class="a889f185-f780-4de1-9459-7b637a841f89" d="M111.9,69.81l.17,1.13.24-1L114,64h1l1.64,6,.24,1L117,69.8,118.33,64h1.13l-2.07,8.53h-1l-1.76-6.22-.13-.65-.14.65-1.82,6.22h-1L109.43,64h1.13Z" transform="translate(-13.37 -6.5)"/>
      <path class="a889f185-f780-4de1-9459-7b637a841f89" d="M126.73,68.56H123v3h4.29v.92h-5.42V64h5.36v.92H123v2.75h3.69Z" transform="translate(-13.37 -6.5)"/>
      <path class="a889f185-f780-4de1-9459-7b637a841f89" d="M129.93,72.5V64h2.79a3.26,3.26,0,0,1,2.09.57,2.07,2.07,0,0,1,.7,1.7,1.72,1.72,0,0,1-.34,1.06,2.23,2.23,0,0,1-.93.71,2,2,0,0,1,1.1.74,2.15,2.15,0,0,1,.4,1.29,2.26,2.26,0,0,1-.75,1.8,3,3,0,0,1-2.1.66Zm1.13-4.89h1.7a1.83,1.83,0,0,0,1.18-.37,1.26,1.26,0,0,0,.44-1,1.21,1.21,0,0,0-.41-1,2.05,2.05,0,0,0-1.25-.32h-1.66Zm0,.9v3.07h1.85a1.78,1.78,0,0,0,1.24-.41,1.4,1.4,0,0,0,.46-1.12c0-1-.56-1.54-1.68-1.54Z" transform="translate(-13.37 -6.5)"/>
      <path class="a889f185-f780-4de1-9459-7b637a841f89" d="M142.77,72.5V64h2.41a3.87,3.87,0,0,1,2,.49,3.37,3.37,0,0,1,1.32,1.4,4.53,4.53,0,0,1,.47,2.09v.54a4.6,4.6,0,0,1-.46,2.12A3.31,3.31,0,0,1,147.15,72a4.11,4.11,0,0,1-2,.5Zm1.13-7.61v6.69h1.18a2.59,2.59,0,0,0,2-.81,3.35,3.35,0,0,0,.72-2.3V68a3.41,3.41,0,0,0-.68-2.26,2.44,2.44,0,0,0-1.94-.82Z" transform="translate(-13.37 -6.5)"/>
      <path class="a889f185-f780-4de1-9459-7b637a841f89" d="M156.66,68.56H153v3h4.29v.92h-5.42V64h5.36v.92H153v2.75h3.69Z" transform="translate(-13.37 -6.5)"/>
      <path class="a889f185-f780-4de1-9459-7b637a841f89" d="M162.69,71l2.43-7h1.23l-3.16,8.53h-1L159,64h1.22Z" transform="translate(-13.37 -6.5)"/>
      <path class="a889f185-f780-4de1-9459-7b637a841f89" d="M173.52,68.56h-3.7v3h4.3v.92H168.7V64h5.36v.92h-4.24v2.75h3.7Z" transform="translate(-13.37 -6.5)"/>
      <path class="a889f185-f780-4de1-9459-7b637a841f89" d="M177.85,71.58h4v.92h-5.17V64h1.13Z" transform="translate(-13.37 -6.5)"/>
      <path class="a889f185-f780-4de1-9459-7b637a841f89" d="M190.56,68.51a5.13,5.13,0,0,1-.43,2.19,3.25,3.25,0,0,1-1.19,1.43,3.38,3.38,0,0,1-1.81.49,3.2,3.2,0,0,1-3-1.91,5,5,0,0,1-.45-2.12V68a5.28,5.28,0,0,1,.43-2.17,3.35,3.35,0,0,1,1.21-1.45,3.49,3.49,0,0,1,3.6,0,3.2,3.2,0,0,1,1.2,1.43,5.19,5.19,0,0,1,.43,2.19ZM189.44,68a3.87,3.87,0,0,0-.61-2.33,2,2,0,0,0-1.71-.81,2,2,0,0,0-1.68.81,3.85,3.85,0,0,0-.63,2.25v.63a3.84,3.84,0,0,0,.62,2.31,2.17,2.17,0,0,0,3.39.05,3.87,3.87,0,0,0,.62-2.28Z" transform="translate(-13.37 -6.5)"/>
      <path class="a889f185-f780-4de1-9459-7b637a841f89" d="M194.57,69.16V72.5h-1.13V64h3.15a3.19,3.19,0,0,1,2.19.71,2.44,2.44,0,0,1,.8,1.9,2.39,2.39,0,0,1-.78,1.91,3.29,3.29,0,0,1-2.22.67Zm0-.92h2a2,2,0,0,0,1.38-.43,1.55,1.55,0,0,0,.48-1.23,1.63,1.63,0,0,0-.48-1.22,1.91,1.91,0,0,0-1.32-.47h-2.08Z" transform="translate(-13.37 -6.5)"/>
      <path class="a889f185-f780-4de1-9459-7b637a841f89" d="M207,68.56h-3.7v3h4.29v.92h-5.42V64h5.37v.92h-4.24v2.75H207Z" transform="translate(-13.37 -6.5)"/>
      <path class="a889f185-f780-4de1-9459-7b637a841f89" d="M213.36,69.05h-2V72.5h-1.13V64h2.82a3.34,3.34,0,0,1,2.22.66,2.34,2.34,0,0,1,.78,1.91,2.31,2.31,0,0,1-.43,1.38,2.6,2.6,0,0,1-1.2.89l2,3.62v.07h-1.21Zm-2-.92h1.73a1.94,1.94,0,0,0,1.33-.44,1.45,1.45,0,0,0,.5-1.16,1.52,1.52,0,0,0-.48-1.21,2,2,0,0,0-1.36-.43h-1.72Z" transform="translate(-13.37 -6.5)"/>
    </g>
  </g>
</svg>
